<mxfile host="app.diagrams.net" modified="2020-09-05T05:29:26.993Z" agent="5.0 (Windows NT 10.0; Win64; x64) AppleWebKit/537.36 (KHTML, like Gecko) Chrome/85.0.4183.83 Safari/537.36 Edg/85.0.564.44" etag="AR_tR3i4JdFsB9Mvn7Wl" version="13.6.6" type="github">
  <diagram name="Page-1" id="c7558073-3199-34d8-9f00-42111426c3f3">
    <mxGraphModel dx="668" dy="506" grid="1" gridSize="10" guides="1" tooltips="1" connect="1" arrows="1" fold="1" page="1" pageScale="1" pageWidth="826" pageHeight="1169" background="#ffffff" math="0" shadow="0">
      <root>
        <mxCell id="0" />
        <mxCell id="1" parent="0" />
        <mxCell id="n43gVdmV19sR6hE3j5jP-99" value="" style="edgeStyle=orthogonalEdgeStyle;rounded=0;orthogonalLoop=1;jettySize=auto;html=1;" edge="1" parent="1" source="n43gVdmV19sR6hE3j5jP-97" target="n43gVdmV19sR6hE3j5jP-98">
          <mxGeometry relative="1" as="geometry" />
        </mxCell>
        <mxCell id="n43gVdmV19sR6hE3j5jP-97" value="Start" style="ellipse;whiteSpace=wrap;html=1;" vertex="1" parent="1">
          <mxGeometry x="353" width="120" height="80" as="geometry" />
        </mxCell>
        <mxCell id="n43gVdmV19sR6hE3j5jP-101" value="" style="edgeStyle=orthogonalEdgeStyle;rounded=0;orthogonalLoop=1;jettySize=auto;html=1;" edge="1" parent="1" source="n43gVdmV19sR6hE3j5jP-98" target="n43gVdmV19sR6hE3j5jP-100">
          <mxGeometry relative="1" as="geometry" />
        </mxCell>
        <mxCell id="n43gVdmV19sR6hE3j5jP-98" value="Enter bacon slices, lettuce leaves, tomato slices" style="shape=parallelogram;perimeter=parallelogramPerimeter;whiteSpace=wrap;html=1;fixedSize=1;" vertex="1" parent="1">
          <mxGeometry x="328" y="180" width="170" height="60" as="geometry" />
        </mxCell>
        <mxCell id="n43gVdmV19sR6hE3j5jP-105" value="" style="edgeStyle=orthogonalEdgeStyle;rounded=0;orthogonalLoop=1;jettySize=auto;html=1;" edge="1" parent="1" source="n43gVdmV19sR6hE3j5jP-100" target="n43gVdmV19sR6hE3j5jP-104">
          <mxGeometry relative="1" as="geometry" />
        </mxCell>
        <mxCell id="n43gVdmV19sR6hE3j5jP-100" value="Collect 2 slices of bread" style="whiteSpace=wrap;html=1;" vertex="1" parent="1">
          <mxGeometry x="353" y="320" width="120" height="60" as="geometry" />
        </mxCell>
        <mxCell id="n43gVdmV19sR6hE3j5jP-107" value="" style="edgeStyle=orthogonalEdgeStyle;rounded=0;orthogonalLoop=1;jettySize=auto;html=1;" edge="1" parent="1" source="n43gVdmV19sR6hE3j5jP-104" target="n43gVdmV19sR6hE3j5jP-106">
          <mxGeometry relative="1" as="geometry" />
        </mxCell>
        <mxCell id="n43gVdmV19sR6hE3j5jP-104" value="Toast bread slices in toaster" style="whiteSpace=wrap;html=1;" vertex="1" parent="1">
          <mxGeometry x="353" y="460" width="120" height="60" as="geometry" />
        </mxCell>
        <mxCell id="n43gVdmV19sR6hE3j5jP-109" value="" style="edgeStyle=orthogonalEdgeStyle;rounded=0;orthogonalLoop=1;jettySize=auto;html=1;" edge="1" parent="1" source="n43gVdmV19sR6hE3j5jP-106" target="n43gVdmV19sR6hE3j5jP-108">
          <mxGeometry relative="1" as="geometry" />
        </mxCell>
        <mxCell id="n43gVdmV19sR6hE3j5jP-106" value="Stack tomato slices onto one Bread slices" style="whiteSpace=wrap;html=1;" vertex="1" parent="1">
          <mxGeometry x="353" y="600" width="120" height="60" as="geometry" />
        </mxCell>
        <mxCell id="n43gVdmV19sR6hE3j5jP-111" value="" style="edgeStyle=orthogonalEdgeStyle;rounded=0;orthogonalLoop=1;jettySize=auto;html=1;" edge="1" parent="1" source="n43gVdmV19sR6hE3j5jP-108" target="n43gVdmV19sR6hE3j5jP-110">
          <mxGeometry relative="1" as="geometry" />
        </mxCell>
        <mxCell id="n43gVdmV19sR6hE3j5jP-108" value="Stack bacon slices onto tomato slices" style="whiteSpace=wrap;html=1;" vertex="1" parent="1">
          <mxGeometry x="353" y="740" width="120" height="60" as="geometry" />
        </mxCell>
        <mxCell id="n43gVdmV19sR6hE3j5jP-113" value="" style="edgeStyle=orthogonalEdgeStyle;rounded=0;orthogonalLoop=1;jettySize=auto;html=1;" edge="1" parent="1" source="n43gVdmV19sR6hE3j5jP-110" target="n43gVdmV19sR6hE3j5jP-112">
          <mxGeometry relative="1" as="geometry" />
        </mxCell>
        <mxCell id="n43gVdmV19sR6hE3j5jP-110" value="Stack lettuce slices onto bacon slices" style="whiteSpace=wrap;html=1;" vertex="1" parent="1">
          <mxGeometry x="353" y="880" width="120" height="60" as="geometry" />
        </mxCell>
        <mxCell id="n43gVdmV19sR6hE3j5jP-115" value="" style="edgeStyle=orthogonalEdgeStyle;rounded=0;orthogonalLoop=1;jettySize=auto;html=1;" edge="1" parent="1" source="n43gVdmV19sR6hE3j5jP-112" target="n43gVdmV19sR6hE3j5jP-114">
          <mxGeometry relative="1" as="geometry" />
        </mxCell>
        <mxCell id="n43gVdmV19sR6hE3j5jP-112" value="Stack one slice of bread onto lettuce slices" style="whiteSpace=wrap;html=1;" vertex="1" parent="1">
          <mxGeometry x="353" y="1020" width="120" height="60" as="geometry" />
        </mxCell>
        <mxCell id="n43gVdmV19sR6hE3j5jP-117" value="" style="edgeStyle=orthogonalEdgeStyle;rounded=0;orthogonalLoop=1;jettySize=auto;html=1;" edge="1" parent="1" source="n43gVdmV19sR6hE3j5jP-114" target="n43gVdmV19sR6hE3j5jP-116">
          <mxGeometry relative="1" as="geometry" />
        </mxCell>
        <mxCell id="n43gVdmV19sR6hE3j5jP-114" value="Collect BLT" style="shape=parallelogram;perimeter=parallelogramPerimeter;whiteSpace=wrap;html=1;fixedSize=1;" vertex="1" parent="1">
          <mxGeometry x="553" y="1020" width="120" height="60" as="geometry" />
        </mxCell>
        <mxCell id="n43gVdmV19sR6hE3j5jP-116" value="End" style="ellipse;whiteSpace=wrap;html=1;" vertex="1" parent="1">
          <mxGeometry x="553" y="870" width="120" height="80" as="geometry" />
        </mxCell>
      </root>
    </mxGraphModel>
  </diagram>
</mxfile>
